# xmcd CD database file
#
# Track frame offsets:
#	150
#	19924
#	40192
#	57027
#	76444
#	96491
#	117382
#	136971
#	151756
#	170039
#
# Disc length: 2547 seconds
#
# Revision: 0
# Processed by: cddbd v1.5.1PL0 Copyright (c) Steve Scherf et al.
# Submitted via: CDex 1.51
#
DISCID=7f09f10a
DTITLE=Milly Quezada - Vive
DYEAR=1900
DGENRE=Merengue
TTITLE0=Para Olvidarte
TTITLE1=Sólo Dame Amor
TTITLE2=Para Darte Mi Vida
TTITLE3=Y Tú... Cómo Estás
TTITLE4=Querido Emigrante
TTITLE5=¡Vive!
TTITLE6=Si Piensas En Mí
TTITLE7=Para Darte Mi Vida (Bachata)
TTITLE8=Sigo Enamorada
TTITLE9=Tú Me Llenas De Amor
EXTD=
EXTT0=
EXTT1=
EXTT2=
EXTT3=
EXTT4=
EXTT5=
EXTT6=
EXTT7=
EXTT8=
EXTT9=
PLAYORDER=
